<svg xmlns="http://www.w3.org/2000/svg" width="600" height="600" viewBox="0 0 600 600"><g transform="translate(-597 -274)"><rect width="600" height="600" transform="translate(597 274)" fill="none"/><path d="M0,422.272,337.474,84.8A190.072,190.072,0,0,1,358.082,71.63a5.5,5.5,0,0,0,2.509-2.279,3.918,3.918,0,0,0-.136-3.734l-.115-.221-.762-1.006c-.939-.938-2.645-1.752-5.454-.309-4.359,2.244-12.473,6.418-19.326,7.892-20.557,4.421-113.424,8.211-175.681-.623l6.729-45.9C260.52,39.085,349.775,30.292,424.164,0l30.953,30.954c-30.291,74.389-39.084,163.644-25.445,258.317L383.771,296c-8.834-62.258-5.046-155.127-.625-175.684,1.467-6.828,5.639-14.948,7.882-19.31,1.452-2.825.639-4.532-.3-5.47l-.177-.177-1.049-.7a3.916,3.916,0,0,0-3.734-.137,5.593,5.593,0,0,0-2.311,2.569A187.014,187.014,0,0,1,370.184,117.8L32.848,455.12Z" transform="translate(669.441 346.44)" fill="#fff"/></g></svg>