<?xml version="1.0" encoding="utf-8"?>
<svg xmlns="http://www.w3.org/2000/svg">
    <defs>
        <symbol id="north" viewBox="0 0 600 600">
            <path d="M276.718 600V121.558C277.821 113.271 280.258 103.917 281.987 97.6162C282.401 96.3285 282.466 95.1972 282.153 94.2222C281.886 93.3761 281.187 92.2447 279.412 91.6745L279.173 91.6009L277.922 91.4261C276.589 91.4261 274.805 92.0608 273.839 95.0684C272.34 99.7501 269.544 108.46 265.736 114.365C254.295 132.071 191.166 200.586 140.775 238.453L113 201.147C189.768 143.706 246.799 74.1986 278.06 0H321.94C353.191 74.1986 410.232 143.706 487 201.147L459.234 238.453C408.843 200.586 345.705 132.071 334.264 114.365C330.465 108.488 327.669 99.7685 326.161 95.0868C325.186 92.0516 323.402 91.4261 322.068 91.4261H321.82L320.579 91.6745C318.803 92.2447 318.104 93.3761 317.838 94.2222C317.525 95.1972 317.589 96.3285 318.022 97.6806C319.732 103.898 322.17 113.234 323.292 121.77V600H276.718Z" fill="currentColor"/>
        </symbol>
        <symbol id="east" viewBox="0 0 600 600">
            <path d="M2.45941e-05 276.718L478.442 276.718C486.729 277.821 496.083 280.259 502.384 281.988C503.671 282.401 504.803 282.466 505.778 282.153C506.624 281.886 507.755 281.187 508.326 279.412L508.399 279.173L508.574 277.923C508.574 276.589 507.939 274.805 504.932 273.839C500.25 272.34 491.54 269.544 485.635 265.736C467.929 254.295 399.414 191.166 361.547 140.775L398.853 113C456.294 189.768 525.801 246.8 600 278.06L600 321.94C525.801 353.192 456.294 410.232 398.853 487L361.547 459.234C399.414 408.843 467.929 345.705 485.635 334.264C491.512 330.466 500.232 327.67 504.913 326.161C507.948 325.186 508.574 323.402 508.574 322.069L508.574 321.82L508.326 320.579C507.755 318.804 506.624 318.105 505.778 317.838C504.803 317.525 503.671 317.59 502.319 318.022C496.102 319.733 486.766 322.17 478.23 323.292L3.07015e-05 323.292L2.45941e-05 276.718Z" fill="currentColor"/>
        </symbol>
        <symbol id="south" viewBox="0 0 600 600">
            <path d="M323.282 1.74378e-05L323.282 478.442C322.179 486.729 319.742 496.083 318.012 502.384C317.599 503.671 317.534 504.803 317.847 505.778C318.114 506.624 318.813 507.755 320.588 508.326L320.827 508.399L322.078 508.574C323.411 508.574 325.195 507.939 326.161 504.932C327.66 500.25 330.456 491.54 334.264 485.635C345.705 467.929 408.834 399.414 459.225 361.547L487 398.853C410.232 456.294 353.201 525.801 321.94 600L278.06 600C246.809 525.801 189.768 456.294 113 398.853L140.766 361.547C191.157 399.414 254.295 467.929 265.736 485.635C269.535 491.512 272.331 500.232 273.839 504.913C274.814 507.948 276.598 508.574 277.932 508.574L278.18 508.574L279.421 508.326C281.197 507.755 281.895 506.624 282.162 505.778C282.475 504.803 282.411 503.671 281.978 502.319C280.268 496.102 277.83 486.766 276.708 478.23L276.708 2.15094e-05L323.282 1.74378e-05Z" fill="currentColor"/>
        </symbol>
        <symbol id="west" viewBox="0 0 600 600">
            <path d="M600.008 323.282L121.566 323.282C113.279 322.179 103.925 319.741 97.624 318.012C96.3363 317.599 95.205 317.534 94.2301 317.847C93.3839 318.114 92.2525 318.813 91.6823 320.588L91.6087 320.827L91.4339 322.077C91.4339 323.411 92.0686 325.195 95.0762 326.161C99.7579 327.66 108.468 330.456 114.373 334.264C132.079 345.705 200.593 408.834 238.461 459.225L201.154 487C143.714 410.232 74.2064 353.2 0.00780528 321.94L0.00780337 278.06C74.2064 246.808 143.714 189.768 201.154 113L238.461 140.766C200.593 191.157 132.079 254.295 114.373 265.736C108.496 269.534 99.7763 272.33 95.0946 273.839C92.0594 274.814 91.4339 276.598 91.4339 277.931L91.4339 278.18L91.6823 279.421C92.2525 281.196 93.3839 281.895 94.2301 282.162C95.205 282.475 96.3363 282.41 97.6884 281.978C103.906 280.267 113.242 277.83 121.777 276.708L600.008 276.708L600.008 323.282Z" fill="currentColor"/>
        </symbol>
        <symbol id="north-east" viewBox="0 0 600 600">
            <path d="M71.759 495.315L410.069 157.005C416.709 151.926 425.047 147.035 430.724 143.802C431.928 143.184 432.773 142.43 433.241 141.519C433.651 140.732 433.957 139.438 433.105 137.78L432.988 137.558L432.227 136.55C431.284 135.607 429.574 134.795 426.764 136.239C422.394 138.489 414.257 142.671 407.39 144.154C386.78 148.584 293.694 152.392 231.286 143.536L238.025 97.5169C332.925 111.184 422.401 102.362 496.973 72L528 103.027C497.632 177.592 488.816 267.075 502.483 361.975L456.47 368.721C447.615 306.313 451.416 213.22 455.846 192.61C457.316 185.769 461.505 177.626 463.748 173.249C465.205 170.413 464.386 168.709 463.443 167.766L463.267 167.591L462.214 166.889C460.555 166.037 459.261 166.342 458.474 166.752C457.564 167.22 456.809 168.066 456.159 169.328C452.972 174.934 448.094 183.259 442.852 190.088L104.692 528.247L71.759 495.315Z" fill="currentColor"/>
        </symbol>
        <symbol id="north-west" viewBox="0 0 600 600">
            <path d="M495.315 528.241L157.005 189.931C151.926 183.291 147.035 174.953 143.802 169.276C143.184 168.072 142.43 167.227 141.519 166.759C140.732 166.349 139.438 166.043 137.78 166.895L137.558 167.012L136.55 167.773C135.608 168.716 134.795 170.426 136.239 173.236C138.489 177.606 142.671 185.743 144.154 192.61C148.584 213.22 152.392 306.306 143.536 368.714L97.5169 361.975C111.184 267.075 102.362 177.599 72 103.027L103.027 72C177.592 102.368 267.075 111.184 361.975 97.5169L368.721 143.53C306.313 152.385 213.22 148.584 192.61 144.154C185.769 142.684 177.626 138.495 173.249 136.252C170.413 134.795 168.709 135.614 167.766 136.557L167.591 136.733L166.889 137.786C166.037 139.444 166.342 140.739 166.752 141.526C167.22 142.436 168.066 143.191 169.328 143.841C174.934 147.028 183.259 151.906 190.088 157.148L528.247 495.308L495.315 528.241Z" fill="currentColor"/>
        </symbol>
        <symbol id="south-east" viewBox="0 0 600 600">
            <path d="M104.685 71.7591L442.995 410.069C448.074 416.709 452.965 425.047 456.198 430.724C456.816 431.928 457.57 432.773 458.481 433.241C459.268 433.651 460.562 433.957 462.22 433.105L462.441 432.988L463.45 432.227C464.392 431.284 465.205 429.574 463.761 426.764C461.511 422.394 457.329 414.257 455.846 407.39C451.416 386.78 447.608 293.694 456.464 231.286L502.483 238.025C488.816 332.925 497.638 422.401 528 496.973L496.973 528C422.408 497.632 332.925 488.816 238.025 502.483L231.279 456.47C293.687 447.615 386.78 451.416 407.39 455.846C414.231 457.316 422.374 461.505 426.751 463.748C429.587 465.205 431.291 464.386 432.234 463.443L432.409 463.267L433.111 462.214C433.963 460.556 433.658 459.261 433.248 458.474C432.78 457.564 431.934 456.809 430.672 456.159C425.066 452.972 416.741 448.094 409.912 442.852L71.7525 104.692L104.685 71.7591Z" fill="currentColor"/>
        </symbol>
        <symbol id="south-west" viewBox="0 0 600 600">
            <path d="M528.241 104.685L189.931 442.995C183.291 448.074 174.953 452.965 169.276 456.198C168.072 456.816 167.227 457.57 166.759 458.481C166.349 459.268 166.043 460.562 166.895 462.22L167.012 462.442L167.773 463.45C168.716 464.392 170.426 465.205 173.236 463.761C177.606 461.511 185.743 457.329 192.61 455.846C213.22 451.416 306.306 447.608 368.714 456.464L361.975 502.483C267.075 488.816 177.599 497.638 103.027 528L72 496.973C102.368 422.408 111.184 332.925 97.5169 238.025L143.53 231.279C152.385 293.687 148.584 386.78 144.154 407.39C142.684 414.231 138.495 422.374 136.252 426.751C134.795 429.587 135.614 431.291 136.557 432.234L136.733 432.409L137.786 433.111C139.444 433.963 140.739 433.658 141.526 433.248C142.436 432.78 143.191 431.934 143.841 430.672C147.028 425.066 151.906 416.741 157.148 409.912L495.308 71.7525L528.241 104.685Z" fill="currentColor"/>
        </symbol>
        <symbol id="dropdown" viewBox="0 0 600 600">
            <path d="M265.727 305.09C277.172 322.796 291 345.452 300 366.452C309 345.452 322.828 322.796 334.273 305.09C345.711 287.384 408.852 218.867 459.242 181L487.008 218.309C410.242 275.749 353.203 345.254 321.945 419.452H278.055C246.797 345.254 189.758 275.749 112.992 218.309L140.758 181C191.148 218.867 254.289 287.384 265.727 305.09Z" fill="currentColor"/>
        </symbol>
    </defs>
</svg>