<svg xmlns="http://www.w3.org/2000/svg" width="766.398" height="766.398" viewBox="0 0 766.398 766.398"><g transform="translate(-1226.92 -1413.92)"><g transform="translate(1226.92 1413.92)"><g transform="translate(383.199)"><path d="M.5,517.379h-1V0h1Z" transform="translate(0 124.509)" fill="#484848"/><path d="M.5,51.98h-1V0h1Z" transform="translate(0 48.353)" fill="#484848"/><path d="M.5,24.177h-1V0h1Z" fill="#484848"/><path d="M.5,51.98h-1V0h1Z" transform="translate(0 718.045) rotate(180)" fill="#484848"/><path d="M.5,24.177h-1V0h1Z" transform="translate(0 766.398) rotate(180)" fill="#484848"/></g><g transform="translate(766.398 383.199) rotate(90)"><path d="M.5,517.379h-1V0h1Z" transform="translate(0 124.509)" fill="#484848"/><path d="M.5,51.98h-1V0h1Z" transform="translate(0 48.353)" fill="#484848"/><path d="M.5,24.177h-1V0h1Z" fill="#484848"/><path d="M.5,51.98h-1V0h1Z" transform="translate(0 718.045) rotate(180)" fill="#484848"/><path d="M.5,24.177h-1V0h1Z" transform="translate(0 766.398) rotate(180)" fill="#484848"/></g></g><g transform="translate(1226.92 1413.92)"><g transform="translate(383.199)"><path d="M.5,517.379h-1V0h1Z" transform="translate(0 124.509)" fill="#484848"/><path d="M.5,51.98h-1V0h1Z" transform="translate(0 48.353)" fill="#484848"/><path d="M.5,24.177h-1V0h1Z" fill="#484848"/><path d="M.5,51.98h-1V0h1Z" transform="translate(0 718.045) rotate(180)" fill="#484848"/><path d="M.5,24.177h-1V0h1Z" transform="translate(0 766.398) rotate(180)" fill="#484848"/></g><g transform="translate(766.398 383.199) rotate(90)"><path d="M.5,517.379h-1V0h1Z" transform="translate(0 124.509)" fill="#484848"/><path d="M.5,51.98h-1V0h1Z" transform="translate(0 48.353)" fill="#484848"/><path d="M.5,24.177h-1V0h1Z" fill="#484848"/><path d="M.5,51.98h-1V0h1Z" transform="translate(0 718.045) rotate(180)" fill="#484848"/><path d="M.5,24.177h-1V0h1Z" transform="translate(0 766.398) rotate(180)" fill="#484848"/></g></g><g transform="matrix(0.966, -0.259, 0.259, 0.966, 1140.799, 1526.157)"><g transform="translate(383.199)"><path d="M.5,517.379h-1V0h1Z" transform="translate(0 124.509)" fill="#484848"/><path d="M.5,51.98h-1V0h1Z" transform="translate(0 48.353)" fill="#484848"/><path d="M.5,24.177h-1V0h1Z" fill="#484848"/><path d="M.5,51.98h-1V0h1Z" transform="translate(0 718.045) rotate(180)" fill="#484848"/><path d="M.5,24.177h-1V0h1Z" transform="translate(0 766.398) rotate(180)" fill="#484848"/></g><g transform="translate(766.398 383.199) rotate(90)"><path d="M.5,517.379h-1V0h1Z" transform="translate(0 124.509)" fill="#484848"/><path d="M.5,51.98h-1V0h1Z" transform="translate(0 48.353)" fill="#484848"/><path d="M.5,24.177h-1V0h1Z" fill="#484848"/><path d="M.5,51.98h-1V0h1Z" transform="translate(0 718.045) rotate(180)" fill="#484848"/><path d="M.5,24.177h-1V0h1Z" transform="translate(0 766.398) rotate(180)" fill="#484848"/></g></g><g transform="translate(1086.66 1937.381) rotate(-60)"><g transform="translate(383.199)"><path d="M.5,517.379h-1V0h1Z" transform="translate(0 124.509)" fill="#484848"/><path d="M.5,51.98h-1V0h1Z" transform="translate(0 48.353)" fill="#484848"/><path d="M.5,24.177h-1V0h1Z" fill="#484848"/><path d="M.5,51.98h-1V0h1Z" transform="translate(0 718.045) rotate(180)" fill="#484848"/><path d="M.5,24.177h-1V0h1Z" transform="translate(0 766.398) rotate(180)" fill="#484848"/></g><g transform="translate(766.398 383.199) rotate(90)"><path d="M.5,517.379h-1V0h1Z" transform="translate(0 124.509)" fill="#484848"/><path d="M.5,51.98h-1V0h1Z" transform="translate(0 48.353)" fill="#484848"/><path d="M.5,24.177h-1V0h1Z" fill="#484848"/><path d="M.5,51.98h-1V0h1Z" transform="translate(0 718.045) rotate(180)" fill="#484848"/><path d="M.5,24.177h-1V0h1Z" transform="translate(0 766.398) rotate(180)" fill="#484848"/></g></g><g transform="matrix(0.259, -0.966, 0.966, 0.259, 1140.799, 2068.083)"><g transform="translate(383.199)"><path d="M.5,517.379h-1V0h1Z" transform="translate(0 124.509)" fill="#484848"/><path d="M.5,51.98h-1V0h1Z" transform="translate(0 48.353)" fill="#484848"/><path d="M.5,24.177h-1V0h1Z" fill="#484848"/><path d="M.5,51.98h-1V0h1Z" transform="translate(0 718.045) rotate(180)" fill="#484848"/><path d="M.5,24.177h-1V0h1Z" transform="translate(0 766.398) rotate(180)" fill="#484848"/></g><g transform="translate(766.398 383.199) rotate(90)"><path d="M.5,517.379h-1V0h1Z" transform="translate(0 124.509)" fill="#484848"/><path d="M.5,51.98h-1V0h1Z" transform="translate(0 48.353)" fill="#484848"/><path d="M.5,24.177h-1V0h1Z" fill="#484848"/><path d="M.5,51.98h-1V0h1Z" transform="translate(0 718.045) rotate(180)" fill="#484848"/><path d="M.5,24.177h-1V0h1Z" transform="translate(0 766.398) rotate(180)" fill="#484848"/></g></g><g transform="translate(1086.66 1656.86) rotate(-30)"><g transform="translate(383.199)"><path d="M.5,517.379h-1V0h1Z" transform="translate(0 124.509)" fill="#484848"/><path d="M.5,51.98h-1V0h1Z" transform="translate(0 48.353)" fill="#484848"/><path d="M.5,24.177h-1V0h1Z" fill="#484848"/><path d="M.5,51.98h-1V0h1Z" transform="translate(0 718.045) rotate(180)" fill="#484848"/><path d="M.5,24.177h-1V0h1Z" transform="translate(0 766.398) rotate(180)" fill="#484848"/></g><g transform="translate(766.398 383.199) rotate(90)"><path d="M.5,517.379h-1V0h1Z" transform="translate(0 124.509)" fill="#484848"/><path d="M.5,51.98h-1V0h1Z" transform="translate(0 48.353)" fill="#484848"/><path d="M.5,24.177h-1V0h1Z" fill="#484848"/><path d="M.5,51.98h-1V0h1Z" transform="translate(0 718.045) rotate(180)" fill="#484848"/><path d="M.5,24.177h-1V0h1Z" transform="translate(0 766.398) rotate(180)" fill="#484848"/></g></g><g transform="translate(1068.195 1797.12) rotate(-45)"><g transform="translate(383.199)"><path d="M.5,517.379h-1V0h1Z" transform="translate(0 124.509)" fill="#484848"/><path d="M.5,51.98h-1V0h1Z" transform="translate(0 48.353)" fill="#484848"/><path d="M.5,24.177h-1V0h1Z" fill="#484848"/><path d="M.5,51.98h-1V0h1Z" transform="translate(0 718.045) rotate(180)" fill="#484848"/><path d="M.5,24.177h-1V0h1Z" transform="translate(0 766.398) rotate(180)" fill="#484848"/></g><g transform="translate(766.398 383.199) rotate(90)"><path d="M.5,517.379h-1V0h1Z" transform="translate(0 124.509)" fill="#484848"/><path d="M.5,51.98h-1V0h1Z" transform="translate(0 48.353)" fill="#484848"/><path d="M.5,24.177h-1V0h1Z" fill="#484848"/><path d="M.5,51.98h-1V0h1Z" transform="translate(0 718.045) rotate(180)" fill="#484848"/><path d="M.5,24.177h-1V0h1Z" transform="translate(0 766.398) rotate(180)" fill="#484848"/></g></g></g></svg>